<svg id="Layer_1" data-name="Layer 1" xmlns="http://www.w3.org/2000/svg" viewBox="0 0 77 77"><defs><style>.cls-1{fill:#fff;}.cls-2{fill:#d5b8ff;}</style></defs><title>CEO</title><path class="cls-1" d="M22.65,82.53V69a26.35,26.35,0,1,1,52.7,0V82.53Z" transform="translate(-11 -13)"/><path d="M49,43.6A25.38,25.38,0,0,1,74.35,69V81.53H23.65V69A25.38,25.38,0,0,1,49,43.6m0-2h0A27.35,27.35,0,0,0,21.65,69V83.53h54.7V69A27.35,27.35,0,0,0,49,41.6Z" transform="translate(-11 -13)"/><path class="cls-1" d="M49,46.18A16.09,16.09,0,1,1,65.09,30.09,16.1,16.1,0,0,1,49,46.18Z" transform="translate(-11 -13)"/><path d="M49,15A15.09,15.09,0,1,1,33.91,30.09,15.11,15.11,0,0,1,49,15m0-2A17.09,17.09,0,1,0,66.09,30.09,17.09,17.09,0,0,0,49,13Z" transform="translate(-11 -13)"/><rect class="cls-2" y="51" width="77" height="26" rx="5.63"/><path d="M36.86,74.13A5.2,5.2,0,0,0,39.41,79l-.95,1.25a5,5,0,0,1-2.39-3,5.3,5.3,0,0,1-2.56,3.18l-.94-1.29c1.86-.87,2.69-3,2.69-5v-1.6h1.6Zm6.19,3.11H41.44v5.48H39.86v-11h1.58v4.24h1.61Z" transform="translate(-11 -13)"/><path d="M49.66,77.91a4.08,4.08,0,0,1-2.53-2,4.29,4.29,0,0,1-2.66,2.39l-.79-1.24a3.56,3.56,0,0,0,2.6-3.38H44.09V72.41h6v1.27H47.9a3.18,3.18,0,0,0,2.52,3Zm3,2.68c0,1.34-1.44,2.13-3.73,2.13s-3.74-.79-3.74-2.13,1.44-2.16,3.74-2.16S52.65,79.23,52.65,80.59Zm-1.57,0c0-.64-.76-.94-2.16-.94s-2.17.3-2.17.94.75.92,2.17.92S51.08,81.21,51.08,80.59ZM54,74.22v1.29H52.53v2.73H51V71.68h1.58v2.54Z" transform="translate(-11 -13)"/><path d="M61.75,76.86a24.55,24.55,0,0,1-5.29.48h-1v-5h1.57V76a20.67,20.67,0,0,0,4.48-.46Zm-5,1.47H64v4.26H56.7Zm1.56,3h4.23V79.57H58.26ZM64,71.66v6.19H62.45V71.66Z" transform="translate(-11 -13)"/></svg>