<svg id="a6b56c5f-c275-470b-a819-17e0812a3414" data-name="Layer 1" xmlns="http://www.w3.org/2000/svg" viewBox="0 0 100 100"><defs><style>.af44e75e-b1ec-4ac4-95e2-52e73629e26d{fill:#fff;}.fb327c9f-d7ab-452f-bc00-fc9cf6b382c0{fill:#d5b8ff;}</style></defs><title>사장님</title><path class="af44e75e-b1ec-4ac4-95e2-52e73629e26d" d="M22,83.18V69A27.1,27.1,0,0,1,37.74,44.41a1.05,1.05,0,0,0,.6-.81,1,1,0,0,0-.33-.91A16.72,16.72,0,0,1,49,13.35a17.62,17.62,0,0,1,1.91.11A16.75,16.75,0,0,1,65.65,28.31,16.57,16.57,0,0,1,60,42.69a1,1,0,0,0-.33.91,1,1,0,0,0,.6.81A27.1,27.1,0,0,1,76,69V83.18Z"/><path d="M49,13.7a16.74,16.74,0,0,1,1.87.1A16.42,16.42,0,0,1,65.3,28.35a16.23,16.23,0,0,1-5.54,14.08,1.35,1.35,0,0,0-.45,1.22,1.4,1.4,0,0,0,.81,1.08A26.74,26.74,0,0,1,75.65,69V82.83H22.35V69A26.74,26.74,0,0,1,37.88,44.73a1.4,1.4,0,0,0,.81-1.08,1.35,1.35,0,0,0-.45-1.22A16.37,16.37,0,0,1,49,13.7m0-.7A17.08,17.08,0,0,0,37.78,43a.68.68,0,0,1-.19,1.13A27.35,27.35,0,0,0,21.65,69V83.53h54.7V69A27.35,27.35,0,0,0,60.41,44.09.68.68,0,0,1,60.22,43a17.07,17.07,0,0,0-9.28-29.85A18.17,18.17,0,0,0,49,13Z"/><rect class="fb327c9f-d7ab-452f-bc00-fc9cf6b382c0" x="11" y="64" width="77" height="26" rx="5.63"/><path class="af44e75e-b1ec-4ac4-95e2-52e73629e26d" d="M35.63,74.21a14.78,14.78,0,0,1-4.05,4.93l-.22-.26a13.88,13.88,0,0,0,3.42-4.64c.13-.35.13-.49,0-.69a2.54,2.54,0,0,0-.63-.44l.16-.19a2.74,2.74,0,0,1,1.35.55C35.89,73.73,35.75,74,35.63,74.21Zm1.84,4a.47.47,0,0,1-.64.43c0-.55-1.36-1.86-2-2.37l.26-.3c.61.5,1,.8,1.47,1.12S37.47,77.8,37.47,78.22Zm4.78-2.31a.57.57,0,0,1-.3.42,8.73,8.73,0,0,0-2,0l0,4.36a8.26,8.26,0,0,1-.32,2h-.28V72.51a2,2,0,0,0-.1-.69,2.84,2.84,0,0,0-1.09-1l.14-.21c.68.08,1.72.66,1.72,1.2,0,.3,0,.58,0,1v3.14a7.85,7.85,0,0,0,1.41-.27C41.73,75.58,42.25,75.78,42.25,75.91Z"/><path class="af44e75e-b1ec-4ac4-95e2-52e73629e26d" d="M44,77.83l-.22-.26a15.75,15.75,0,0,0,4.38-4.07c.22-.36.14-.47-.17-.47-.54,0-2.26.26-2.75.25a1.11,1.11,0,0,1-.91-.56l.2-.21a1.7,1.7,0,0,0,.86.2c.72,0,2.08-.22,2.67-.22.32,0,1,.53,1,.79a.88.88,0,0,1-.21.48A15.44,15.44,0,0,1,44,77.83Zm8.36,2.68a2.45,2.45,0,0,1-4.84,0,2.41,2.41,0,0,1,2-2.21c.3-.11.19-.29-.06-.44l.15-.21c.35.11.67.34.67.6s-.22.37-.62.5a1.85,1.85,0,0,0-1.44,1.76,1.76,1.76,0,0,0,3.51,0,1.75,1.75,0,0,0-1.33-1.76l.22-.22A2,2,0,0,1,52.34,80.51ZM49,76c.33.2.66.46.66.82a.39.39,0,0,1-.56.36c-.09-.55-1-1.3-1.47-1.55l.3-.23C48.35,75.63,48.66,75.8,49,76Zm5.48-1.26a.57.57,0,0,1-.3.42,8.73,8.73,0,0,0-2,0v1A6.26,6.26,0,0,1,51.81,78h-.26V72.45a1.76,1.76,0,0,0-.09-.69,3.07,3.07,0,0,0-1.11-1l.13-.21c.69.08,1.73.62,1.73,1.13,0,.3,0,.59,0,1v2a10.15,10.15,0,0,0,1.41-.27C54,74.41,54.47,74.61,54.47,74.74Z"/><path class="af44e75e-b1ec-4ac4-95e2-52e73629e26d" d="M63.1,75.71a20.86,20.86,0,0,1-4.86,1.17c-.39,0-1-.38-1-.71s0-1.79,0-2.57c0-.35-.47-.52-1.08-.76l.14-.21c.61,0,1.64.29,1.64.67s0,.4,0,.58c0,.66,0,1.57,0,1.87,0,.48,0,.56.44.54A18.34,18.34,0,0,0,63,75.42Zm-2.43,5.72c0,.55-.23,1-.39,1s-.13-.11-.14-.33c0-.65-.22-2.64-.3-3a.71.71,0,0,0-.59-.63l.11-.18c.45-.06,1,.12,1.1.57S60.65,80.85,60.67,81.43Zm4.12.66-3.88.06-.08-.21c0-.13.28-.26.54-.26s1.93-.07,2.59-.07c.07-.53.22-2,.24-2.31s-.12-.38-.46-.4c-.58,0-2.41,0-3,.06l0-.35a24.86,24.86,0,0,1,3.17-.31c.34,0,1.1.52,1.08.79a17,17,0,0,1-.56,2.42.65.65,0,0,1,.34,0C65.08,81.6,65.11,82.09,64.79,82.09Zm-1.7-11.28.13-.21c.69.08,1.73.62,1.73,1.13,0,.3,0,.59,0,1v3.07a6.26,6.26,0,0,1-.35,1.88h-.26V72.45a1.76,1.76,0,0,0-.09-.69A3.15,3.15,0,0,0,63.09,70.81Z"/></svg>